<svg width="110" height="36" viewBox="0 0 110 36" fill="none" xmlns="http://www.w3.org/2000/svg">
<path d="M1.86 4.625V35H0.555V0.754998L25.395 31.58V1.25H26.7V35.495L1.86 4.625ZM42.9566 34.28C44.5166 34.28 46.0016 33.875 47.4116 33.065C48.8216 32.255 49.9916 31.145 50.9216 29.735V32.03C49.8116 33.26 48.5966 34.16 47.2766 34.73C45.9566 35.27 44.4566 35.54 42.7766 35.54C40.9166 35.54 39.1616 35.045 37.5116 34.055C35.8916 33.065 34.5866 31.745 33.5966 30.095C32.6366 28.445 32.1566 26.69 32.1566 24.83C32.1566 22.82 32.6366 21.02 33.5966 19.43C34.5566 17.81 35.8616 16.55 37.5116 15.65C39.1916 14.75 41.0516 14.3 43.0916 14.3C46.2116 14.3 48.8666 15.53 51.0566 17.99L36.9266 31.94C37.9166 32.75 38.8766 33.35 39.8066 33.74C40.7366 34.1 41.7866 34.28 42.9566 34.28ZM33.5966 24.695C33.5966 27.185 34.4216 29.315 36.0716 31.085L49.2566 17.99C48.2666 17.12 47.3066 16.505 46.3766 16.145C45.4466 15.755 44.3366 15.56 43.0466 15.56C41.2166 15.56 39.5816 15.965 38.1416 16.775C36.7316 17.555 35.6216 18.635 34.8116 20.015C34.0016 21.395 33.5966 22.955 33.5966 24.695ZM68.9438 35L61.5638 23.885L54.2738 35H52.8338L60.7088 23.03L55.2188 14.75H56.8838L61.5188 21.77L66.1088 14.75H67.5488L62.3738 22.625L70.6088 35H68.9438ZM83.1444 35.495C80.2944 35.495 78.0894 34.715 76.5294 33.155C74.9994 31.595 74.2344 29.39 74.2344 26.54V14.75H75.6744V26.54C75.6744 29 76.3194 30.905 77.6094 32.255C78.9294 33.575 80.7744 34.235 83.1444 34.235C84.5844 34.235 85.9044 33.92 87.1044 33.29C88.3044 32.63 89.2494 31.715 89.9394 30.545C90.6294 29.375 90.9744 28.04 90.9744 26.54V14.75H92.4144V35H90.9744V31.22C90.2844 32.48 89.2494 33.515 87.8694 34.325C86.4894 35.105 84.9144 35.495 83.1444 35.495ZM103.002 35.495C101.562 35.495 100.287 35.255 99.1767 34.775C98.0667 34.265 97.2717 33.62 96.7917 32.84V30.455C97.3617 31.745 98.1417 32.705 99.1317 33.335C100.122 33.935 101.382 34.235 102.912 34.235C104.382 34.235 105.567 33.785 106.467 32.885C107.367 31.955 107.817 30.77 107.817 29.33C107.817 28.1 107.562 27.155 107.052 26.495C106.542 25.805 105.717 25.115 104.577 24.425L102.867 23.435C101.637 22.685 100.707 22.1 100.077 21.68C99.4767 21.23 98.9967 20.735 98.6367 20.195C98.2767 19.625 98.0967 18.965 98.0967 18.215C98.0967 17.015 98.5167 16.055 99.3567 15.335C100.197 14.615 101.292 14.255 102.642 14.255C104.292 14.255 105.672 14.63 106.782 15.38V17.36C105.852 16.13 104.517 15.515 102.777 15.515C101.817 15.515 101.037 15.755 100.437 16.235C99.8367 16.715 99.5367 17.33 99.5367 18.08C99.5367 18.74 99.7167 19.325 100.077 19.835C100.437 20.315 100.932 20.765 101.562 21.185C102.222 21.605 103.302 22.235 104.802 23.075C106.332 23.945 107.457 24.845 108.177 25.775C108.897 26.675 109.257 27.86 109.257 29.33C109.257 31.19 108.642 32.69 107.412 33.83C106.212 34.94 104.742 35.495 103.002 35.495Z" fill="white"/>
</svg>
